<svg width="32" height="32" viewBox="0 0 32 32" fill="none" xmlns="http://www.w3.org/2000/svg">
<g clip-path="url(#clip0_737_5521)">
<path fill-rule="evenodd" clip-rule="evenodd" d="M0.0605469 16C0.0605469 7.16344 7.11674 0 15.821 0C24.5253 0 31.5814 7.16344 31.5814 16C31.5814 24.8366 24.5253 32 15.821 32C7.11674 32 0.0605469 24.8366 0.0605469 16Z" fill="#0B6DBB"/>
<path fill-rule="evenodd" clip-rule="evenodd" d="M11.0307 11.2075L10.5731 13.5789H19.8935L19.602 15.1107H10.2757L9.82429 17.4817H19.1439L18.6241 20.186L14.8678 21.4746L11.6125 20.186L11.8353 19.013H9.5457L9.00098 21.8593L14.3851 23.9931L20.5922 21.8593L21.4159 17.5779L21.5826 16.7193L22.6403 11.2075H11.0307Z" fill="white"/>
<path fill-rule="evenodd" clip-rule="evenodd" d="M31.5808 15.9998C31.5808 24.8364 24.5246 31.9998 15.8204 31.9998C12.5922 31.9998 9.59067 31.0145 7.0918 29.324L25.1506 3.10352C29.0503 6.01618 31.5808 10.708 31.5808 15.9998Z" fill="black" fill-opacity="0.08"/>
</g>
<defs>
<clipPath id="clip0_737_5521">
<rect width="32" height="32" fill="white"/>
</clipPath>
</defs>
</svg>
