<svg width="32" height="32" viewBox="0 0 32 32" fill="none" xmlns="http://www.w3.org/2000/svg">
<circle cx="16" cy="16" r="16" fill="#13002B"/>
<g clip-path="url(#clip0_739_5549)">
<path d="M13.7504 24.4969C15.2681 24.4969 16.4999 23.2652 16.4999 21.7475V18.998H13.7504C12.2327 18.998 11.001 20.2298 11.001 21.7475C11.001 23.2652 12.2327 24.4969 13.7504 24.4969Z" fill="#0ACF83"/>
<path d="M11.001 16.2485C11.001 14.7308 12.2327 13.499 13.7504 13.499H16.4999V18.9979H13.7504C12.2327 18.9979 11.001 17.7662 11.001 16.2485Z" fill="#A259FF"/>
<path d="M11.001 10.7494C11.001 9.23175 12.2327 8 13.7504 8H16.4999V13.4989H13.7504C12.2327 13.4989 11.001 12.2671 11.001 10.7494Z" fill="#F24E1E"/>
<path d="M16.5 8H19.2494C20.7671 8 21.9989 9.23175 21.9989 10.7494C21.9989 12.2671 20.7671 13.4989 19.2494 13.4989H16.5V8Z" fill="#FF7262"/>
<path d="M21.9989 16.2485C21.9989 17.7662 20.7671 18.9979 19.2494 18.9979C17.7318 18.9979 16.5 17.7662 16.5 16.2485C16.5 14.7308 17.7318 13.499 19.2494 13.499C20.7671 13.499 21.9989 14.7308 21.9989 16.2485Z" fill="#1ABCFE"/>
</g>
<defs>
<clipPath id="clip0_739_5549">
<rect width="11" height="16.4967" fill="white" transform="translate(11 8)"/>
</clipPath>
</defs>
</svg>
