<svg width="32" height="32" viewBox="0 0 32 32" fill="none" xmlns="http://www.w3.org/2000/svg">
<g clip-path="url(#clip0_737_5514)">
<path fill-rule="evenodd" clip-rule="evenodd" d="M0.119141 16C0.119141 7.16344 7.17533 0 15.8796 0C24.5838 0 31.64 7.16344 31.64 16C31.64 24.8366 24.5838 32 15.8796 32C7.17533 32 0.119141 24.8366 0.119141 16Z" fill="#E24628"/>
<path fill-rule="evenodd" clip-rule="evenodd" d="M10.4205 23.4674L15.9908 25.0669L21.5758 23.465L22.819 9.06689H9.17969L10.4205 23.4674ZM13.5838 13.7767L13.7394 15.5853H19.9625L19.4936 21.0073L15.9991 22.0101L12.4933 21.0073L12.2542 18.2337H13.9686L14.0902 19.6436L15.9914 20.1735L17.8979 19.6412L18.0954 17.3513H12.1778L11.7172 12.0107H20.2704L20.1176 13.7767H13.5838Z" fill="white"/>
<path fill-rule="evenodd" clip-rule="evenodd" d="M31.6404 15.9998C31.6404 24.8364 24.5842 31.9998 15.88 31.9998C12.6517 31.9998 9.65024 31.0145 7.15137 29.324L25.2102 3.10352C29.1098 6.01618 31.6404 10.708 31.6404 15.9998Z" fill="black" fill-opacity="0.08"/>
</g>
<defs>
<clipPath id="clip0_737_5514">
<rect width="32" height="32" fill="white"/>
</clipPath>
</defs>
</svg>
