<svg width="32" height="32" viewBox="0 0 32 32" fill="none" xmlns="http://www.w3.org/2000/svg">
<g clip-path="url(#clip0_737_5511)">
<path d="M0 0H32V32H0V0Z" fill="#F0DB4F"/>
<path d="M25.9703 18.8513C25.7361 17.3913 24.784 16.1654 21.9643 15.0217C20.9848 14.5715 19.8928 14.2491 19.5673 13.5069C19.4517 13.0749 19.4365 12.8316 19.5095 12.57C19.7194 11.7213 20.7323 11.4567 21.5354 11.7C22.0525 11.8734 22.5422 12.2719 22.8373 12.9076C24.2182 12.0134 24.2152 12.0194 25.1795 11.405C24.8266 10.8575 24.638 10.605 24.4068 10.3708C23.5764 9.44301 22.4449 8.96544 20.635 9.00195C20.3217 9.04149 20.0054 9.08405 19.692 9.12362C18.7886 9.35176 17.9278 9.82628 17.4228 10.462C15.908 12.1807 16.3399 15.189 18.1833 16.427C19.9992 17.7898 22.6669 18.1 23.0076 19.3746C23.3392 20.935 21.8609 21.4399 20.3916 21.2605C19.3087 21.0354 18.7065 20.4848 18.0555 19.4841C16.8571 20.1776 16.8571 20.1776 15.6251 20.8864C15.9171 21.5251 16.2243 21.8141 16.7141 22.3677C19.032 24.7191 24.8327 24.6035 25.873 21.0445C25.9156 20.9228 26.1955 20.1076 25.9703 18.8513ZM13.9856 9.19051H10.9924C10.9924 11.7761 10.9803 14.3434 10.9803 16.9289C10.9803 18.5745 11.0654 20.0833 10.7977 20.5456C10.3597 21.4551 9.22512 21.3426 8.70801 21.1661C8.18178 20.9076 7.9141 20.5395 7.60383 20.0194C7.51866 19.8704 7.45478 19.7548 7.43346 19.7456C6.62132 20.2415 5.81217 20.7403 5 21.2361C5.40459 22.0666 6.00076 22.7875 6.76426 23.2559C7.90494 23.9403 9.43802 24.1502 11.0411 23.7821C12.0844 23.4779 12.9848 22.8483 13.4563 21.8901C14.1376 20.6339 13.9916 19.1129 13.9856 17.4308C14.0008 14.6871 13.9856 11.9434 13.9856 9.19051Z" fill="#13002A"/>
</g>
<defs>
<clipPath id="clip0_737_5511">
<rect width="32" height="32" rx="16" fill="white"/>
</clipPath>
</defs>
</svg>
