<svg width="37" height="37" viewBox="0 0 37 37" fill="none" xmlns="http://www.w3.org/2000/svg">
<g clip-path="url(#clip0_737_5535)">
<path d="M0 0H36.186V36.186H0V0Z" fill="#13002A"/>
<path d="M18.0092 19.8432C19.2467 19.8432 20.2499 18.84 20.2499 17.6025C20.2499 16.365 19.2467 15.3618 18.0092 15.3618C16.7717 15.3618 15.7686 16.365 15.7686 17.6025C15.7686 18.84 16.7717 19.8432 18.0092 19.8432Z" fill="#00D8FF"/>
<path d="M18.0091 13.0474C21.0169 13.0474 23.8115 13.4791 25.9181 14.204C28.4565 15.0778 30.0174 16.4025 30.0174 17.6021C30.0174 18.852 28.3632 20.2596 25.6375 21.1623C23.5768 21.845 20.8644 22.2019 18.0091 22.2019C15.0812 22.2019 12.3096 21.8672 10.2252 21.1549C7.58833 20.2537 6 18.8283 6 17.6021C6 16.4121 7.49058 15.0978 9.9934 14.2255C12.1082 13.4887 14.9716 13.0474 18.0091 13.0474Z" stroke="#00D8FF" stroke-width="1.07181" stroke-miterlimit="10"/>
<path d="M14.0436 15.3383C15.546 12.7326 17.3165 10.5274 18.9974 9.065C21.0226 7.30266 22.9501 6.61253 23.989 7.21158C25.0716 7.8358 25.4648 9.97208 24.885 12.7852C24.4466 14.9118 23.401 17.4391 21.9741 19.913C20.5117 22.4492 18.8367 24.6832 17.1788 26.133C15.081 27.9672 13.0521 28.6307 11.9903 28.0183C10.9595 27.4237 10.5656 25.4762 11.0595 22.872C11.4771 20.6698 12.5256 17.9693 14.0436 15.3383Z" stroke="#00D8FF" stroke-width="1.07181" stroke-miterlimit="10"/>
<path d="M14.0476 19.918C12.5407 17.3144 11.5144 14.6798 11.0864 12.4932C10.571 9.85856 10.9353 7.84371 11.9735 7.24319C13.0553 6.61674 15.102 7.34315 17.2494 9.24988C18.8733 10.6916 20.5401 12.8597 21.9707 15.3314C23.4376 17.8654 24.5372 20.4319 24.9645 22.5918C25.5058 25.3257 25.0674 27.4146 24.0063 28.0284C22.9763 28.6245 21.0925 27.9936 19.0828 26.2646C17.3857 24.8037 15.5693 22.5467 14.0476 19.918Z" stroke="#00D8FF" stroke-width="1.07181" stroke-miterlimit="10"/>
</g>
<defs>
<clipPath id="clip0_737_5535">
<rect width="36.186" height="36.186" rx="18.093" fill="white"/>
</clipPath>
</defs>
</svg>
