<svg width="32" height="32" viewBox="0 0 32 32" fill="none" xmlns="http://www.w3.org/2000/svg">
<circle cx="16" cy="16" r="16" fill="#E7FFFE"/>
<path d="M15.7481 9.43598C11.8721 9.55917 10.7201 12.328 10.4561 13.828C10.8 13.272 11.8841 12.052 13.4801 12.052C15.3401 12.052 16.7561 14.128 17.6201 14.776C18.6697 15.5633 20.779 16.6028 23.5481 15.76C25.7561 15.088 26.7801 12.744 27.0041 11.632C25.9361 13.084 24.3161 13.9561 22.3121 12.928C20.9321 12.22 19.9001 9.30401 15.7481 9.43598Z" fill="#07B6D5"/>
<path d="M10.2637 16.0239C6.38768 16.1471 5.23568 18.9159 4.97168 20.4159C5.31568 19.8599 6.39968 18.6399 7.99568 18.6399C9.85568 18.6399 11.2717 20.7159 12.1357 21.3639C13.1854 22.1512 15.2946 23.1907 18.0637 22.3479C20.2717 21.6759 21.2957 19.3319 21.5197 18.2199C20.4517 19.6719 18.8317 20.544 16.8277 19.5159C15.4477 18.8079 14.4157 15.8919 10.2637 16.0239Z" fill="#07B6D5"/>
</svg>
