<svg width="32" height="32" viewBox="0 0 32 32" fill="none" xmlns="http://www.w3.org/2000/svg">
<g clip-path="url(#clip0_737_5507)">
<path d="M16 0C24.8366 0 32 7.16344 32 16C32 24.8366 24.8366 32 16 32C7.16344 32 0 24.8366 0 16C0 7.16344 7.16344 0 16 0Z" fill="#3178C6"/>
<path d="M17.5579 20.089V23.2178C18.06 23.4785 18.6537 23.6741 19.3391 23.8045C20.0246 23.9349 20.7471 24 21.5066 24C22.2467 24 22.95 23.9283 23.6161 23.7849C24.2823 23.6415 24.8664 23.4053 25.3684 23.076C25.8704 22.7469 26.2679 22.3166 26.5607 21.7854C26.8536 21.2541 27 20.5975 27 19.8153C27 19.2481 26.9164 18.7511 26.749 18.3241C26.5816 17.8973 26.3403 17.5175 26.0249 17.1851C25.7095 16.8526 25.3314 16.5545 24.8905 16.2905C24.4496 16.0265 23.9524 15.7771 23.3989 15.5425C22.9934 15.373 22.6297 15.2084 22.3079 15.0487C21.9861 14.889 21.7126 14.7261 21.4872 14.5599C21.262 14.3936 21.0882 14.2176 20.966 14.0319C20.8436 13.8461 20.7825 13.6359 20.7825 13.4012C20.7825 13.1861 20.8372 12.9922 20.9466 12.8195C21.0561 12.6467 21.2105 12.4984 21.41 12.3746C21.6096 12.2507 21.8541 12.1546 22.1437 12.0861C22.4334 12.0177 22.7552 11.9835 23.1092 11.9835C23.3667 11.9835 23.6386 12.003 23.925 12.0421C24.2115 12.0812 24.4995 12.1416 24.7891 12.223C25.0788 12.3045 25.3604 12.4072 25.6339 12.531C25.9074 12.6549 26.16 12.7983 26.3918 12.9613V10.0378C25.9219 9.85525 25.4086 9.71999 24.8519 9.632C24.2951 9.544 23.6564 9.5 22.9355 9.5C22.2017 9.5 21.5066 9.57985 20.8501 9.73955C20.1936 9.89925 19.616 10.1486 19.1171 10.4875C18.6182 10.8265 18.2241 11.2583 17.9345 11.783C17.6449 12.3078 17.5 12.9351 17.5 13.6652C17.5 14.5974 17.7655 15.3925 18.2965 16.0509C18.8275 16.7092 19.6336 17.2666 20.715 17.7229C21.1398 17.8989 21.5356 18.0716 21.9025 18.2411C22.2693 18.4105 22.5862 18.5865 22.8534 18.769C23.1205 18.9516 23.3313 19.1504 23.4858 19.3655C23.6403 19.5806 23.7175 19.825 23.7175 20.0987C23.7175 20.3009 23.6692 20.4882 23.5726 20.661C23.4761 20.8337 23.3298 20.9836 23.1334 21.1108C22.9371 21.2379 22.6925 21.3373 22.3996 21.409C22.1068 21.4806 21.764 21.5165 21.3715 21.5165C20.7021 21.5165 20.0391 21.3975 19.3826 21.1596C18.7261 20.9217 18.1179 20.5649 17.5579 20.089ZM12.2138 12.3176H16.25V9.75H5V12.3176H9.01645V23.75H12.2138V12.3176Z" fill="white"/>
</g>
<defs>
<clipPath id="clip0_737_5507">
<rect width="32" height="32" fill="white"/>
</clipPath>
</defs>
</svg>
